<?xml version="1.0" encoding="UTF-8"?>
<svg width="800px" height="402px" viewBox="0 0 800 402" version="1.1" xmlns="http://www.w3.org/2000/svg" xmlns:xlink="http://www.w3.org/1999/xlink">
    <!-- Generator: Sketch 52.6 (67491) - http://www.bohemiancoding.com/sketch -->
    <title>Group 13 Copy 3</title>
    <desc>Created with Sketch.</desc>
    <g id="Page-1" stroke="none" stroke-width="1" fill="none" fill-rule="evenodd">
        <g id="Group-13-Copy-3">
            <rect id="Rectangle" fill="#FFFFFF" x="0" y="0" width="800" height="402"></rect>
            <text id="Age-Groups" font-family="Roboto-Regular, Roboto" font-size="12" font-weight="normal" fill="#363636">
                <tspan x="87.0500234" y="170.8155">Age Groups</tspan>
            </text>
            <circle id="Oval" stroke="#E0E0E0" stroke-width="8.748" cx="121.03475" cy="85.37825" r="48.66075"></circle>
            <path d="M198.1265,112.169 C198.1265,82.5767547 174.382034,58.5875 145.09175,58.5875 C115.801466,58.5875 92.057,82.5767547 92.057,112.169" id="Oval" stroke="#4CB2FF" stroke-width="16.4025" transform="translate(145.091750, 85.378250) rotate(90.000000) translate(-145.091750, -85.378250) "></path>
            <text id="2,768" font-family="Roboto-Medium, Roboto" font-size="25.1505" font-weight="400" fill="#363636">
                <tspan x="89.1358386" y="93.616">2,768</tspan>
            </text>
            <text id="BMI" font-family="Roboto-Regular, Roboto" font-size="12" font-weight="normal" fill="#363636">
                <tspan x="664.695531" y="170.8155">BMI</tspan>
            </text>
            <circle id="Oval" stroke="#E0E0E0" stroke-width="8.748" cx="678.03475" cy="85.37825" r="48.66075"></circle>
            <path d="M755.1265,112.169 C755.1265,82.5767547 731.382034,58.5875 702.09175,58.5875 C672.801466,58.5875 649.057,82.5767547 649.057,112.169" id="Oval" stroke="#4CB2FF" stroke-width="16.4025" transform="translate(702.091750, 85.378250) rotate(90.000000) translate(-702.091750, -85.378250) "></path>
            <text id="2,768" font-family="Roboto-Medium, Roboto" font-size="25.1505" font-weight="400" fill="#363636">
                <tspan x="646.135839" y="93.616">2,768</tspan>
            </text>
            <text id="Chief-Complaints" font-family="Roboto-Regular, Roboto" font-size="12" font-weight="normal" fill="#363636">
                <tspan x="438.645727" y="365.8155">Chief Complaints</tspan>
            </text>
            <circle id="Oval" stroke="#E0E0E0" stroke-width="8.748" cx="487.28475" cy="280.37825" r="48.66075"></circle>
            <path d="M564.3765,307.169 C564.3765,277.576755 540.632034,253.5875 511.34175,253.5875 C482.051466,253.5875 458.307,277.576755 458.307,307.169" id="Oval" stroke="#4CB2FF" stroke-width="16.4025" transform="translate(511.341750, 280.378250) rotate(90.000000) translate(-511.341750, -280.378250) "></path>
            <text id="2,768" font-family="Roboto-Medium, Roboto" font-size="25.1505" font-weight="400" fill="#363636">
                <tspan x="455.385839" y="288.616">2,768</tspan>
            </text>
            <text id="Gender" font-family="Roboto-Regular, Roboto" font-size="12" font-weight="normal" fill="#363636">
                <tspan x="287.425305" y="170.5655">Gender</tspan>
            </text>
            <circle id="Oval" stroke="#E0E0E0" stroke-width="8.748" cx="306.59425" cy="85.12825" r="48.66075"></circle>
            <path d="M357.442,31 C327.849755,31 303.8605,54.9892547 303.8605,84.5815" id="Oval" stroke="#F14C4C" stroke-width="16.4025" transform="translate(330.651250, 57.790750) rotate(90.000000) translate(-330.651250, -57.790750) "></path>
            <text id="345" font-family="Roboto-Medium, Roboto" font-size="25.1505" font-weight="400" fill="#363636">
                <tspan x="284.605716" y="93.366">345</tspan>
            </text>
            <text id="BP-Range" font-family="Roboto-Regular, Roboto" font-size="12" font-weight="normal" fill="#363636">
                <tspan x="95.7749141" y="366.5655">BP Range</tspan>
            </text>
            <circle id="Oval" stroke="#E0E0E0" stroke-width="8.748" cx="121.59425" cy="281.12825" r="48.66075"></circle>
            <path d="M172.442,227 C142.849755,227 118.8605,250.989255 118.8605,280.5815" id="Oval" stroke="#F14C4C" stroke-width="16.4025" transform="translate(145.651250, 253.790750) rotate(90.000000) translate(-145.651250, -253.790750) "></path>
            <text id="345" font-family="Roboto-Medium, Roboto" font-size="25.1505" font-weight="400" fill="#363636">
                <tspan x="99.6057163" y="289.366">345</tspan>
            </text>
            <text id="Family-History" font-family="Roboto-Regular, Roboto" font-size="12" font-weight="normal" fill="#363636">
                <tspan x="637.44093" y="366.5655">Family History</tspan>
            </text>
            <circle id="Oval" stroke="#E0E0E0" stroke-width="8.748" cx="675.59425" cy="281.12825" r="48.66075"></circle>
            <path d="M726.442,227 C696.849755,227 672.8605,250.989255 672.8605,280.5815" id="Oval" stroke="#F14C4C" stroke-width="16.4025" transform="translate(699.651250, 253.790750) rotate(90.000000) translate(-699.651250, -253.790750) "></path>
            <text id="345" font-family="Roboto-Medium, Roboto" font-size="25.1505" font-weight="400" fill="#363636">
                <tspan x="653.605716" y="289.366">345</tspan>
            </text>
            <text id="Occupation" font-family="Roboto-Regular, Roboto" font-size="12" font-weight="normal" fill="#363636">
                <tspan x="465.958312" y="170.5655">Occupation</tspan>
            </text>
            <circle id="Oval" stroke="#E0E0E0" stroke-width="8.748" cx="492.62325" cy="85.12825" r="48.66075"></circle>
            <path d="M492.62325,137.987007 C521.913534,137.987007 545.658,114.24254 545.658,84.9522566 C545.658,55.6619729 521.913534,31.9175066 492.62325,31.9175066 C463.332966,31.9175066 439.5885,55.6619729 439.5885,84.9522566" id="Oval" stroke="#3BA500" stroke-width="16.4025" transform="translate(492.623250, 84.952257) rotate(91.000000) translate(-492.623250, -84.952257) "></path>
            <text id="3" font-family="Roboto-Medium, Roboto" font-size="25.1505" font-weight="400" fill="#363636">
                <tspan x="484.929239" y="93.366">3</tspan>
            </text>
            <text id="Diagnostics" font-family="Roboto-Regular, Roboto" font-size="12" font-weight="normal" fill="#363636">
                <tspan x="268.95343" y="366.5655">Diagnostics</tspan>
            </text>
            <circle id="Oval" stroke="#E0E0E0" stroke-width="8.748" cx="296.62325" cy="281.12825" r="48.66075"></circle>
            <path d="M296.62325,333.987007 C325.913534,333.987007 349.658,310.24254 349.658,280.952257 C349.658,251.661973 325.913534,227.917507 296.62325,227.917507 C267.332966,227.917507 243.5885,251.661973 243.5885,280.952257" id="Oval" stroke="#3BA500" stroke-width="16.4025" transform="translate(296.623250, 280.952257) rotate(91.000000) translate(-296.623250, -280.952257) "></path>
            <text id="3" font-family="Roboto-Medium, Roboto" font-size="25.1505" font-weight="400" fill="#363636">
                <tspan x="288.929239" y="289.366">3</tspan>
            </text>
        </g>
    </g>
</svg>